<mxfile host="app.diagrams.net" modified="2023-11-06T10:45:36.519Z" agent="Mozilla/5.0 (X11; Linux x86_64; rv:101.0) Gecko/20100101 Firefox/101.0" version="22.0.8" etag="VbWej8Q3HgtCQQ9vCggw" type="github">
  <diagram name="PÃ¡gina-1" id="bM8w8_BwbDhXAELfbaZP">
    <mxGraphModel>
      <root>
        <mxCell id="0" />
        <mxCell id="1" parent="0" />
      </root>
    </mxGraphModel>
  </diagram>
</mxfile>
